# xmcd
#
# Track frame offsets:
#	150
#	17485
#	31385
#	48347
#	67622
#	83622
#	101357
#	116837
#	134477
#	150089
#	164519
#	185518
#	200730
#	213549
#
# Disc length: 3068 seconds
#
# Revision: 0
# Processed by: cddbd v1.5.1PL0 Copyright (c) Steve Scherf et al.
# Submitted via: EasyCDDAExtractor 8.2.1.1
#
DISCID=b20bfa0e
DTITLE=Lenno and Lincoln - Aconteceu
DYEAR=2005
DGENRE=Sertanejo
TTITLE0=Só Vivo Por Você
TTITLE1=Papo da Hora
TTITLE2=Aconteceu
TTITLE3=Aonde Esta Você
TTITLE4=Antes de Entrar No Carro
TTITLE5=O Adeus é o Preço
TTITLE6=Só Quero Te Amar
TTITLE7=Noites de Solidão
TTITLE8=Só Malandragem
TTITLE9=Ser Caipira Tá Na Moda
TTITLE10=Coração Em Brasa
TTITLE11=Na Boca da Noite
TTITLE12=Olhar Xonado
TTITLE13=Ingratidão
EXTD=
EXTT0=
EXTT1=
EXTT2=
EXTT3=
EXTT4=
EXTT5=
EXTT6=
EXTT7=
EXTT8=
EXTT9=
EXTT10=
EXTT11=
EXTT12=
EXTT13=
PLAYORDER=
